<svg id="Layer_1" data-name="Layer 1" xmlns="http://www.w3.org/2000/svg" viewBox="0 0 500 500"><defs><style>.cls-1{fill:#4169E1;}</style></defs><title>pk-04</title><path class="cls-1" d="M467.68,413.48H420.06L341.19,291.91,317,313V413.48H275.9v-27a24.34,24.34,0,0,1-.18-2.64V133.19a20.57,20.57,0,0,0-20.58-20.58H176.55a20.48,20.48,0,0,0-20.48,20.49V190a20.55,20.55,0,0,0,20.48,20.49h21.31V144.94h41.07v211.6A56.94,56.94,0,0,1,182,413.48H27.12V144.94H68.19V372.41h113.7a16,16,0,0,0,16-16V251.57h-29.5A53.36,53.36,0,0,1,115,198.21v-73.4a53.37,53.37,0,0,1,53.36-53.36h95.07a53.46,53.46,0,0,1,53.45,53.36v20.13H317V273.15c11.2-14.66,22.4-28.86,33.51-42.43l67.85-85.78H465q-65.7,82.64-94.25,117.74Z"/></svg>